<svg width="1156" height="395" viewBox="0 0 1156 395" fill="none" xmlns="http://www.w3.org/2000/svg">
<path d="M40.5978 367.087C57.7036 367.087 68.0117 358.506 68.0117 344.353C68.0117 333.655 60.6567 325.91 49.7358 324.684V324.239C57.7593 322.901 64.0556 315.268 64.0556 306.743C64.0556 294.596 54.6948 286.684 40.4307 286.684H8.33643V367.087H40.5978ZM20.8175 296.881H37.4218C46.4483 296.881 51.5745 301.004 51.5745 308.47C51.5745 316.438 45.6126 320.895 34.803 320.895H20.8175V296.881ZM20.8175 356.89V330.423H37.3104C49.1229 330.423 55.252 334.881 55.252 343.573C55.252 352.265 49.29 356.89 38.0348 356.89H20.8175ZM127.575 308.47H115.54V342.626C115.54 351.764 110.303 357.782 101.61 357.782C93.3082 357.782 89.0735 352.99 89.0735 344.075V308.47H77.0382V346.415C77.0382 359.843 84.8389 368.145 97.5986 368.145C106.569 368.145 112.531 364.189 115.763 357.169H116.042V367.087H127.575V308.47ZM139.889 367.087H151.925V308.47H139.889V367.087ZM145.907 299.889C149.807 299.889 152.928 296.825 152.928 293.036C152.928 289.191 149.807 286.127 145.907 286.127C142.062 286.127 138.942 289.191 138.942 293.036C138.942 296.825 142.062 299.889 145.907 299.889ZM164.684 367.087H176.72V286.684H164.684V367.087ZM192.6 294.596V308.47H184.075V317.998H192.6V351.652C192.6 362.963 197.224 367.477 209.093 367.477C211.767 367.477 214.442 367.254 215.779 366.92V357.392C214.999 357.559 213.049 357.67 211.823 357.67C206.92 357.67 204.691 355.386 204.691 350.315V317.998H215.835V308.47H204.691V294.596H192.6ZM249.322 367.087H261.357V308.47H249.322V367.087ZM255.34 299.889C259.24 299.889 262.36 296.825 262.36 293.036C262.36 289.191 259.24 286.127 255.34 286.127C251.495 286.127 248.375 289.191 248.375 293.036C248.375 296.825 251.495 299.889 255.34 299.889ZM273.671 367.087H285.706V332.931C285.706 323.849 291.167 317.831 299.636 317.831C307.994 317.831 312.117 322.678 312.117 331.482V367.087H324.208V329.142C324.208 315.714 316.798 307.467 303.871 307.467C294.844 307.467 288.604 311.59 285.428 318.277H285.149V308.47H273.671V367.087ZM372.963 367.087V340.286L381.209 330.869L409.069 367.087H424.559L390.013 322.288L421.884 286.684H407.063L373.464 324.963H372.963V286.684H360.482V367.087H372.963ZM452.753 368.201C469.524 368.201 480.556 356.667 480.556 337.778C480.556 318.945 469.468 307.411 452.753 307.411C436.037 307.411 424.949 318.945 424.949 337.778C424.949 356.667 435.981 368.201 452.753 368.201ZM452.753 358.283C443.336 358.283 437.207 350.817 437.207 337.778C437.207 324.796 443.336 317.329 452.753 317.329C462.169 317.329 468.298 324.796 468.298 337.778C468.298 350.817 462.225 358.283 452.753 358.283ZM493.372 294.596V308.47H484.847V317.998H493.372V351.652C493.372 362.963 497.997 367.477 509.865 367.477C512.539 367.477 515.214 367.254 516.551 366.92V357.392C515.771 357.559 513.821 357.67 512.595 357.67C507.692 357.67 505.463 355.386 505.463 350.315V317.998H516.607V308.47H505.463V294.596H493.372ZM526.971 367.087H539.006V286.684H526.971V367.087ZM551.766 367.087H563.801V308.47H551.766V367.087ZM557.783 299.889C561.684 299.889 564.804 296.825 564.804 293.036C564.804 289.191 561.684 286.127 557.783 286.127C553.939 286.127 550.818 289.191 550.818 293.036C550.818 296.825 553.939 299.889 557.783 299.889ZM576.115 367.087H588.15V332.931C588.15 323.849 593.611 317.831 602.08 317.831C610.438 317.831 614.561 322.678 614.561 331.482V367.087H626.652V329.142C626.652 315.714 619.241 307.467 606.315 307.467C597.288 307.467 591.048 311.59 587.872 318.277H587.593V308.47H576.115V367.087ZM646.822 383.635L654.4 354.216H642.254L637.239 383.635H646.822ZM762.774 308.47H750.85L740.152 354.606H739.874L727.615 308.47H716.026L703.823 354.606H703.6L692.902 308.47H680.867L696.97 367.087H709.395L721.598 323.18H721.876L734.19 367.087H746.727L762.774 308.47ZM770.519 367.087H782.554V308.47H770.519V367.087ZM776.537 299.889C780.437 299.889 783.557 296.825 783.557 293.036C783.557 289.191 780.437 286.127 776.537 286.127C772.692 286.127 769.572 289.191 769.572 293.036C769.572 296.825 772.692 299.889 776.537 299.889ZM798.379 294.596V308.47H789.854V317.998H798.379V351.652C798.379 362.963 803.003 367.477 814.872 367.477C817.546 367.477 820.221 367.254 821.558 366.92V357.392C820.778 357.559 818.828 357.67 817.602 357.67C812.698 357.67 810.47 355.386 810.47 350.315V317.998H821.614V308.47H810.47V294.596H798.379ZM831.977 367.087H844.013V333.209C844.013 323.96 849.473 317.831 858.388 317.831C866.858 317.831 871.204 323.013 871.204 331.649V367.087H883.295V329.309C883.295 316.048 875.605 307.467 862.734 307.467C853.819 307.467 847.412 311.423 844.18 318.277H843.901V286.684H831.977V367.087ZM969.492 356.277H932.049V286.684H919.568V367.087H969.492V356.277ZM1002.48 368.201C1019.25 368.201 1030.28 356.667 1030.28 337.778C1030.28 318.945 1019.19 307.411 1002.48 307.411C985.762 307.411 974.674 318.945 974.674 337.778C974.674 356.667 985.707 368.201 1002.48 368.201ZM1002.48 358.283C993.061 358.283 986.932 350.817 986.932 337.778C986.932 324.796 993.061 317.329 1002.48 317.329C1011.89 317.329 1018.02 324.796 1018.02 337.778C1018.02 350.817 1011.95 358.283 1002.48 358.283ZM1088.06 308.47H1075.47L1060.76 355.33H1060.54L1045.83 308.47H1033.01L1054.13 367.087H1067.06L1088.06 308.47ZM1117.82 317.107C1126.23 317.107 1131.91 323.403 1132.19 332.374H1102.88C1103.5 323.514 1109.4 317.107 1117.82 317.107ZM1132.14 349.869C1130.52 354.996 1125.45 358.45 1118.6 358.45C1108.96 358.45 1102.83 351.708 1102.83 341.512V340.787H1144.23V336.664C1144.23 318.89 1134.09 307.411 1117.82 307.411C1101.27 307.411 1090.68 319.67 1090.68 338.057C1090.68 356.556 1101.1 368.201 1118.32 368.201C1131.75 368.201 1141.89 360.568 1143.56 349.869H1132.14Z" fill="black"/>
<path d="M13.4053 3.27556V174.345H56.9137V124.198H84.8918C122.947 124.198 149.147 100.369 149.147 63.8554C149.147 27.1044 124.251 3.27556 87.5 3.27556H13.4053ZM56.9137 36.5885H76.0005C94.2574 36.5885 105.164 46.1912 105.164 63.9739C105.164 81.8752 94.2574 91.4779 75.7634 91.4779H56.9137V36.5885Z" fill="url(#paint0_linear_255_2793)"/>
<path d="M165.625 174.345H207.711V106.415C207.711 88.3955 217.314 78.4372 234.978 78.4372C239.957 78.4372 244.818 79.3856 248.374 80.8082V45.0057C245.529 43.9387 241.973 43.346 237.705 43.346C222.53 43.346 212.098 52.2373 207.356 69.6644H206.526V45.2428H165.625V174.345Z" fill="url(#paint1_linear_255_2793)"/>
<path d="M318.913 72.0354C332.19 72.0354 341.556 81.2824 342.267 95.0344H295.321C296.388 81.6381 305.99 72.0354 318.913 72.0354ZM343.216 133.564C340.252 142.336 331.479 147.671 320.217 147.671C305.042 147.671 294.728 137.002 294.728 121.59V118.982H381.863V107.127C381.863 67.649 357.086 42.1604 318.201 42.1604C278.724 42.1604 253.946 68.716 253.946 110.446C253.946 152.176 278.486 177.428 319.624 177.428C353.411 177.428 377.121 160.238 381.152 133.564H343.216Z" fill="url(#paint2_linear_255_2793)"/>
<path d="M408.775 16.3162V45.2428H391.229V76.1847H408.775V138.898C408.775 164.269 422.052 174.582 455.602 174.582C463.783 174.582 469.947 173.871 473.978 173.041V143.166C471.488 143.641 468.999 143.759 465.679 143.759C455.602 143.759 450.86 139.254 450.86 130.363V76.1847H474.096V45.2428H450.86V16.3162H408.775Z" fill="url(#paint3_linear_255_2793)"/>
<path d="M501.956 16.3162V45.2428H484.41V76.1847H501.956V138.898C501.956 164.269 515.234 174.582 548.784 174.582C556.964 174.582 563.129 173.871 567.159 173.041V143.166C564.67 143.641 562.18 143.759 558.861 143.759C548.784 143.759 544.042 139.254 544.042 130.363V76.1847H567.278V45.2428H544.042V16.3162H501.956Z" fill="url(#paint4_linear_255_2793)"/>
<path d="M604.029 221.885C641.847 221.885 660.815 208.607 671.84 173.99L713.096 45.2428H668.758L645.522 142.811H644.811L621.456 45.2428H575.102L618.611 174.345C618.848 175.175 618.374 178.376 618.374 179.087C617.307 186.912 611.023 190.231 597.864 190.231C597.153 190.231 589.329 190.113 588.736 189.994V221.766C589.329 221.885 603.436 221.885 604.029 221.885Z" fill="url(#paint5_linear_255_2793)"/>
<path d="M804.262 122.775V86.7358H726.256V122.775H804.262Z" fill="url(#paint6_linear_255_2793)"/>
<path d="M876.105 174.345V125.976L890.686 107.482L934.313 174.345H985.409L922.34 79.2671L981.971 3.27556H935.262L877.053 78.4372H876.105V3.27556H832.596V174.345H876.105Z" fill="url(#paint7_linear_255_2793)"/>
<path d="M1071.48 0.311768C1019.67 0.311768 986.95 34.3361 986.95 88.8697C986.95 143.403 1019.55 177.309 1071.48 177.309C1123.28 177.309 1155.89 143.403 1155.89 88.8697C1155.89 34.3361 1123.28 0.311768 1071.48 0.311768ZM1071.48 35.6401C1095.78 35.6401 1111.67 56.2681 1111.67 88.8697C1111.67 121.353 1095.78 141.981 1071.48 141.981C1047.06 141.981 1031.29 121.353 1031.29 88.8697C1031.29 56.2681 1047.17 35.6401 1071.48 35.6401Z" fill="url(#paint8_linear_255_2793)"/>
<defs>
<linearGradient id="paint0_linear_255_2793" x1="1155.89" y1="0.312324" x2="-1816.42" y2="571.329" gradientUnits="userSpaceOnUse">
<stop stop-color="#554CF4"/>
<stop offset="1" stop-color="#16169C"/>
</linearGradient>
<linearGradient id="paint1_linear_255_2793" x1="1155.89" y1="0.312324" x2="-1816.42" y2="571.329" gradientUnits="userSpaceOnUse">
<stop stop-color="#554CF4"/>
<stop offset="1" stop-color="#16169C"/>
</linearGradient>
<linearGradient id="paint2_linear_255_2793" x1="1155.89" y1="0.312324" x2="-1816.42" y2="571.329" gradientUnits="userSpaceOnUse">
<stop stop-color="#554CF4"/>
<stop offset="1" stop-color="#16169C"/>
</linearGradient>
<linearGradient id="paint3_linear_255_2793" x1="1155.89" y1="0.312324" x2="-1816.42" y2="571.329" gradientUnits="userSpaceOnUse">
<stop stop-color="#554CF4"/>
<stop offset="1" stop-color="#16169C"/>
</linearGradient>
<linearGradient id="paint4_linear_255_2793" x1="1155.89" y1="0.312324" x2="-1816.42" y2="571.329" gradientUnits="userSpaceOnUse">
<stop stop-color="#554CF4"/>
<stop offset="1" stop-color="#16169C"/>
</linearGradient>
<linearGradient id="paint5_linear_255_2793" x1="1155.89" y1="0.312324" x2="-1816.42" y2="571.329" gradientUnits="userSpaceOnUse">
<stop stop-color="#554CF4"/>
<stop offset="1" stop-color="#16169C"/>
</linearGradient>
<linearGradient id="paint6_linear_255_2793" x1="1155.89" y1="0.312324" x2="-1816.42" y2="571.329" gradientUnits="userSpaceOnUse">
<stop stop-color="#554CF4"/>
<stop offset="1" stop-color="#16169C"/>
</linearGradient>
<linearGradient id="paint7_linear_255_2793" x1="1155.89" y1="0.312324" x2="-1816.42" y2="571.329" gradientUnits="userSpaceOnUse">
<stop stop-color="#554CF4"/>
<stop offset="1" stop-color="#16169C"/>
</linearGradient>
<linearGradient id="paint8_linear_255_2793" x1="1155.89" y1="0.312324" x2="-1816.42" y2="571.329" gradientUnits="userSpaceOnUse">
<stop stop-color="#554CF4"/>
<stop offset="1" stop-color="#16169C"/>
</linearGradient>
</defs>
</svg>
